<?xml version="1.0" encoding="UTF-8" standalone="no"?>
<svg
   xmlns:dc="http://purl.org/dc/elements/1.1/"
   xmlns:cc="http://creativecommons.org/ns#"
   xmlns:rdf="http://www.w3.org/1999/02/22-rdf-syntax-ns#"
   xmlns:svg="http://www.w3.org/2000/svg"
   xmlns="http://www.w3.org/2000/svg"
   xmlns:sodipodi="http://sodipodi.sourceforge.net/DTD/sodipodi-0.dtd"
   xmlns:inkscape="http://www.inkscape.org/namespaces/inkscape"
   width="512"
   height="512"
   viewBox="0 0 135.46666 135.46667"
   version="1.1"
   id="svg8"
   inkscape:version="1.0.2-2 (e86c870879, 2021-01-15)"
   sodipodi:docname="plus(task2.2).svg"
   inkscape:export-filename="C:\Users\Neor\Documents\icon2\png\plus(task)2.2.png"
   inkscape:export-xdpi="96.000008"
   inkscape:export-ydpi="96.000008">
  <defs
     id="defs2" />
  <sodipodi:namedview
     id="base"
     pagecolor="#ffffff"
     bordercolor="#666666"
     borderopacity="1.0"
     inkscape:pageopacity="0.0"
     inkscape:pageshadow="2"
     inkscape:zoom="0.45412252"
     inkscape:cx="342.34819"
     inkscape:cy="397.53767"
     inkscape:document-units="mm"
     inkscape:current-layer="layer1"
     inkscape:document-rotation="0"
     showgrid="false"
     inkscape:window-width="1768"
     inkscape:window-height="925"
     inkscape:window-x="-9"
     inkscape:window-y="29"
     inkscape:window-maximized="1"
     units="px"
     showguides="true"
     inkscape:guide-bbox="true"
     inkscape:pagecheckerboard="false" />
  <metadata
     id="metadata5">
    <rdf:RDF>
      <cc:Work
         rdf:about="">
        <dc:format>image/svg+xml</dc:format>
        <dc:type
           rdf:resource="http://purl.org/dc/dcmitype/StillImage" />
        <dc:title></dc:title>
      </cc:Work>
    </rdf:RDF>
  </metadata>
  <g
     inkscape:label="Слой 1"
     inkscape:groupmode="layer"
     id="layer1">
    <path
       id="path941"
       style="color:#000000;font-style:normal;font-variant:normal;font-weight:normal;font-stretch:normal;font-size:medium;line-height:normal;font-family:sans-serif;font-variant-ligatures:normal;font-variant-position:normal;font-variant-caps:normal;font-variant-numeric:normal;font-variant-alternates:normal;font-variant-east-asian:normal;font-feature-settings:normal;font-variation-settings:normal;text-indent:0;text-align:start;text-decoration:none;text-decoration-line:none;text-decoration-style:solid;text-decoration-color:#000000;letter-spacing:normal;word-spacing:normal;text-transform:none;writing-mode:lr-tb;direction:ltr;text-orientation:mixed;dominant-baseline:auto;baseline-shift:baseline;text-anchor:start;white-space:normal;shape-padding:0;shape-margin:0;inline-size:0;clip-rule:nonzero;display:inline;overflow:visible;visibility:visible;opacity:0.995;isolation:auto;mix-blend-mode:normal;color-interpolation:sRGB;color-interpolation-filters:linearRGB;solid-color:#000000;solid-opacity:1;vector-effect:none;fill:#eeeeee;fill-opacity:0.996078;fill-rule:nonzero;stroke:none;stroke-width:20;stroke-linecap:round;stroke-linejoin:round;stroke-miterlimit:4;stroke-dasharray:none;stroke-dashoffset:0;stroke-opacity:1;color-rendering:auto;image-rendering:auto;shape-rendering:auto;text-rendering:auto;enable-background:accumulate;stop-color:#000000"
       d="M 247.13086 1.7871094 C 220.47758 1.7871094 198.70508 23.551802 198.70508 50.205078 L 198.70508 198.70508 L 50.205078 198.70508 C 23.551802 198.70508 1.7871094 220.47758 1.7871094 247.13086 L 1.7871094 264.86914 C 1.7871094 291.52242 23.551802 313.28711 50.205078 313.28711 L 198.70508 313.28711 L 198.70508 461.79688 C 198.70508 488.22098 220.10763 509.82742 246.44727 510.19727 L 246.44727 257.03906 A 9.32589 9.3656919 0 0 1 255.76953 247.67773 L 287.39062 247.67773 C 289.64695 230.39025 304.28976 217.125 322.13867 217.125 L 416.16211 217.125 C 434.011 217.125 448.65182 230.39032 450.9082 247.67773 L 482.53906 247.67773 A 9.32589 9.3656919 0 0 1 491.85938 257.03906 L 491.85938 302.75391 C 503.02453 293.86843 510.21484 280.18002 510.21484 264.86914 L 510.21484 247.13086 C 510.21484 220.47758 488.45016 198.70508 461.79688 198.70508 L 313.28711 198.70508 L 313.28711 50.205078 C 313.28711 23.551802 291.52242 1.7871094 264.86914 1.7871094 L 247.13086 1.7871094 z "
       transform="scale(0.26458333)" />
    <g
       id="g1012"
       transform="matrix(0.99445548,0,0,0.99445548,0.54208374,0.5567761)"
       style="stroke-width:1.00558">
      <path
         id="path994"
         style="color:#000000;font-style:normal;font-variant:normal;font-weight:normal;font-stretch:normal;font-size:medium;line-height:normal;font-family:sans-serif;font-variant-ligatures:normal;font-variant-position:normal;font-variant-caps:normal;font-variant-numeric:normal;font-variant-alternates:normal;font-variant-east-asian:normal;font-feature-settings:normal;font-variation-settings:normal;text-indent:0;text-align:start;text-decoration:none;text-decoration-line:none;text-decoration-style:solid;text-decoration-color:#000000;letter-spacing:normal;word-spacing:normal;text-transform:none;writing-mode:lr-tb;direction:ltr;text-orientation:mixed;dominant-baseline:auto;baseline-shift:baseline;text-anchor:start;white-space:normal;shape-padding:0;shape-margin:0;inline-size:0;clip-rule:nonzero;display:inline;overflow:visible;visibility:visible;isolation:auto;mix-blend-mode:normal;color-interpolation:sRGB;color-interpolation-filters:linearRGB;solid-color:#000000;solid-opacity:1;vector-effect:none;fill:#eeeeee;fill-opacity:1;fill-rule:nonzero;stroke:none;stroke-width:6.65192;stroke-linecap:round;stroke-linejoin:round;stroke-miterlimit:4;stroke-dasharray:none;stroke-dashoffset:0;stroke-opacity:1;color-rendering:auto;image-rendering:auto;shape-rendering:auto;text-rendering:auto;enable-background:accumulate;stop-color:#000000"
         d="m 74.907658,73.06673 a 1.8803419,1.9201295 0 0 0 -1.87944,1.919514 v 58.267816 a 1.8803419,1.9201295 0 0 0 1.87944,1.92074 h 45.722702 a 1.8803419,1.9201295 0 0 0 1.87944,-1.92074 V 74.986244 a 1.8803419,1.9201295 0 0 0 -1.87944,-1.919514 z" />
      <path
         id="path996"
         style="fill:#eeeeee;fill-opacity:1;stroke:none;stroke-width:4.47201;stroke-linejoin:round;stroke-miterlimit:4;stroke-dasharray:none;stroke-opacity:1"
         d="m 89.78877,65.663001 c -3.325317,0 -6.00257,3.244207 -6.00257,7.273711 0,0.03509 0.0018,0.06968 0.0018,0.104619 h 28.10015 c 4.1e-4,-0.03502 0.002,-0.06953 0.002,-0.104619 0,-4.029504 -2.67725,-7.273711 -6.00258,-7.273711 z" />
    </g>
  </g>
</svg>
