<?xml version="1.0" encoding="UTF-8" standalone="no"?>
<svg
   xmlns:dc="http://purl.org/dc/elements/1.1/"
   xmlns:cc="http://creativecommons.org/ns#"
   xmlns:rdf="http://www.w3.org/1999/02/22-rdf-syntax-ns#"
   xmlns:svg="http://www.w3.org/2000/svg"
   xmlns="http://www.w3.org/2000/svg"
   xmlns:sodipodi="http://sodipodi.sourceforge.net/DTD/sodipodi-0.dtd"
   xmlns:inkscape="http://www.inkscape.org/namespaces/inkscape"
   width="512"
   height="512"
   viewBox="0 0 135.46666 135.46667"
   version="1.1"
   id="svg8"
   inkscape:version="1.0.2-2 (e86c870879, 2021-01-15)"
   sodipodi:docname="plus(task1).svg"
   inkscape:export-filename="C:\Users\Neor\Documents\icon2\png\plus(task)2.png"
   inkscape:export-xdpi="96.000008"
   inkscape:export-ydpi="96.000008">
  <defs
     id="defs2" />
  <sodipodi:namedview
     id="base"
     pagecolor="#ffffff"
     bordercolor="#666666"
     borderopacity="1.0"
     inkscape:pageopacity="0.0"
     inkscape:pageshadow="2"
     inkscape:zoom="1.4142136"
     inkscape:cx="282.62227"
     inkscape:cy="312.8508"
     inkscape:document-units="mm"
     inkscape:current-layer="layer1"
     inkscape:document-rotation="0"
     showgrid="false"
     inkscape:window-width="1768"
     inkscape:window-height="925"
     inkscape:window-x="-9"
     inkscape:window-y="29"
     inkscape:window-maximized="1"
     units="px"
     showguides="true"
     inkscape:guide-bbox="true"
     inkscape:pagecheckerboard="false" />
  <metadata
     id="metadata5">
    <rdf:RDF>
      <cc:Work
         rdf:about="">
        <dc:format>image/svg+xml</dc:format>
        <dc:type
           rdf:resource="http://purl.org/dc/dcmitype/StillImage" />
        <dc:title />
      </cc:Work>
    </rdf:RDF>
  </metadata>
  <g
     inkscape:label="Слой 1"
     inkscape:groupmode="layer"
     id="layer1">
    <path
       id="rect879"
       style="opacity:0.995;fill:#eeeeee;fill-opacity:0.996078;stroke:#eeeeee;stroke-width:5.29167;stroke-linecap:round;stroke-linejoin:round;stroke-miterlimit:4;stroke-dasharray:none;stroke-opacity:0.996078"
       d="m 65.523401,3.11764 c -5.631984,0 -10.166305,4.53432 -10.166305,10.16631 v 41.937 H 13.420122 c -5.6319854,0 -10.1663042,4.53432 -10.1663042,10.16631 v 4.69222 c 0,5.63199 4.5343188,10.16632 10.1663042,10.16632 h 41.936974 v 41.93698 c 0,1.15486 0.193506,2.26248 0.545187,3.2954 v -47.0607 c 0,-9.35836 7.45073,-16.892 16.70544,-16.892 h 49.601627 c 3.87936,0 7.43863,1.32725 10.2681,3.55431 -0.16195,-5.48821 -4.62974,-9.85884 -10.15855,-9.85884 H 80.381927 v -41.937 c 0,-5.63199 -4.534321,-10.16631 -10.166305,-10.16631 z" />
    <path
       id="rect838"
       style="fill:#eeeeee;fill-opacity:0.996078;stroke:none;stroke-width:5.29201;stroke-linecap:round;stroke-linejoin:round;stroke-opacity:0.996078"
       d="m 76.488942,71.329322 c -5.469308,0 -9.872279,4.403475 -9.872279,9.872783 V 134.90925 H 130.63589 V 81.202105 c 0,-5.469308 -4.40297,-9.872783 -9.87228,-9.872783 z m 1.15538,7.842362 a 3.2502983,3.2502983 0 0 1 0.0046,0 H 119.6047 a 3.2502983,3.2502983 0 0 1 3.24929,3.249793 3.2502983,3.2502983 0 0 1 -3.24929,3.24979 H 77.648893 a 3.2502983,3.2502983 0 0 1 -3.251823,-3.24979 3.2502983,3.2502983 0 0 1 3.247252,-3.249793 z m 0,13.520741 a 3.2502983,3.2502983 0 0 1 0.0046,0 H 119.6047 a 3.2502983,3.2502983 0 0 1 3.24929,3.24979 3.2502983,3.2502983 0 0 1 -3.24929,3.251824 H 77.648893 a 3.2502983,3.2502983 0 0 1 -3.251823,-3.251824 3.2502983,3.2502983 0 0 1 3.247252,-3.24979 z m -0.0021,13.520735 a 3.2502983,3.2502983 0 0 1 0.0066,0 H 119.6046 a 3.2502983,3.2502983 0 0 1 3.24929,3.25183 3.2502983,3.2502983 0 0 1 -3.24929,3.24979 H 77.648893 a 3.2502983,3.2502983 0 0 1 -3.251823,-3.24979 3.2502983,3.2502983 0 0 1 3.245221,-3.25183 z m 0.0021,13.52277 a 3.2502983,3.2502983 0 0 1 0.0046,0 H 119.6047 a 3.2502983,3.2502983 0 0 1 3.24929,3.2498 3.2502983,3.2502983 0 0 1 -3.24929,3.24979 H 77.648893 a 3.2502983,3.2502983 0 0 1 -3.251823,-3.24979 3.2502983,3.2502983 0 0 1 3.247252,-3.2498 z" />
  </g>
</svg>
