<?xml version="1.0" encoding="UTF-8" standalone="no"?>
<svg
   xmlns:dc="http://purl.org/dc/elements/1.1/"
   xmlns:cc="http://creativecommons.org/ns#"
   xmlns:rdf="http://www.w3.org/1999/02/22-rdf-syntax-ns#"
   xmlns:svg="http://www.w3.org/2000/svg"
   xmlns="http://www.w3.org/2000/svg"
   xmlns:sodipodi="http://sodipodi.sourceforge.net/DTD/sodipodi-0.dtd"
   xmlns:inkscape="http://www.inkscape.org/namespaces/inkscape"
   width="512"
   height="512"
   viewBox="0 0 135.46666 135.46667"
   version="1.1"
   id="svg8"
   inkscape:version="1.0.2-2 (e86c870879, 2021-01-15)"
   sodipodi:docname="give_task2.svg"
   inkscape:export-filename="C:\Users\Neor\Documents\icon2\png\give_task2.png"
   inkscape:export-xdpi="96.000008"
   inkscape:export-ydpi="96.000008">
  <defs
     id="defs2" />
  <sodipodi:namedview
     id="base"
     pagecolor="#ffffff"
     bordercolor="#666666"
     borderopacity="1.0"
     inkscape:pageopacity="0.0"
     inkscape:pageshadow="2"
     inkscape:zoom="1"
     inkscape:cx="483.23104"
     inkscape:cy="296.94878"
     inkscape:document-units="mm"
     inkscape:current-layer="layer1"
     inkscape:document-rotation="0"
     showgrid="false"
     inkscape:window-width="1768"
     inkscape:window-height="925"
     inkscape:window-x="-9"
     inkscape:window-y="29"
     inkscape:window-maximized="1"
     units="px"
     showguides="true"
     inkscape:guide-bbox="true"
     inkscape:pagecheckerboard="false" />
  <metadata
     id="metadata5">
    <rdf:RDF>
      <cc:Work
         rdf:about="">
        <dc:format>image/svg+xml</dc:format>
        <dc:type
           rdf:resource="http://purl.org/dc/dcmitype/StillImage" />
        <dc:title></dc:title>
      </cc:Work>
    </rdf:RDF>
  </metadata>
  <g
     inkscape:label="Слой 1"
     inkscape:groupmode="layer"
     id="layer1">
    <path
       style="fill:none;stroke:#ffffff;stroke-width:9.26039;stroke-linecap:round;stroke-linejoin:round;stroke-miterlimit:4;stroke-dasharray:none;stroke-opacity:1"
       d="M 12.64324,25.267709 H 74.933843"
       id="path924" />
    <path
       id="path1065"
       style="color:#000000;font-style:normal;font-variant:normal;font-weight:normal;font-stretch:normal;font-size:medium;line-height:normal;font-family:sans-serif;font-variant-ligatures:normal;font-variant-position:normal;font-variant-caps:normal;font-variant-numeric:normal;font-variant-alternates:normal;font-variant-east-asian:normal;font-feature-settings:normal;font-variation-settings:normal;text-indent:0;text-align:start;text-decoration:none;text-decoration-line:none;text-decoration-style:solid;text-decoration-color:#000000;letter-spacing:normal;word-spacing:normal;text-transform:none;writing-mode:lr-tb;direction:ltr;text-orientation:mixed;dominant-baseline:auto;baseline-shift:baseline;text-anchor:start;white-space:normal;shape-padding:0;shape-margin:0;inline-size:0;clip-rule:nonzero;display:inline;overflow:visible;visibility:visible;isolation:auto;mix-blend-mode:normal;color-interpolation:sRGB;color-interpolation-filters:linearRGB;solid-color:#000000;solid-opacity:1;vector-effect:none;fill:#eeeeee;fill-opacity:0.996078;fill-rule:nonzero;stroke:none;stroke-width:6.615;stroke-linecap:round;stroke-linejoin:round;stroke-miterlimit:4;stroke-dasharray:none;stroke-dashoffset:0;stroke-opacity:1;color-rendering:auto;image-rendering:auto;shape-rendering:auto;text-rendering:auto;enable-background:accumulate;stop-color:#000000"
       d="M 4.6402498,20.529518 A 3.354019,3.3540455 0 0 0 1.2878303,23.882487 V 125.66365 a 3.354019,3.3540455 0 0 0 3.3524195,3.35506 H 86.197099 a 3.354019,3.3540455 0 0 0 3.352422,-3.35506 v -4.67813 H 42.641324 c -3.310468,0 -5.975461,-2.66501 -5.975461,-5.97551 V 82.082375 c 0,-3.310494 2.664993,-5.975508 5.975461,-5.975508 H 89.549521 V 23.882487 A 3.354019,3.3540455 0 0 0 86.197099,20.529518 Z M 17.291205,39.652293 h 9.902162 c 2.728652,0 4.992473,2.262267 4.992473,4.990941 v 9.903812 c 0,2.728673 -2.263821,4.992512 -4.992473,4.992512 h -9.902162 c -2.728653,0 -4.992474,-2.263839 -4.992474,-4.992512 v -9.903812 c 0,-2.728674 2.263821,-4.990941 4.992474,-4.990941 z m 22.698781,2.196539 a 2.6827755,2.6827967 0 0 1 0.0063,0 h 35.13805 a 2.6827755,2.6827967 0 0 1 2.683823,2.683318 2.6827755,2.6827967 0 0 1 -2.683823,2.683318 H 39.996275 A 2.6827755,2.6827967 0 0 1 37.312978,44.53215 2.6827755,2.6827967 0 0 1 39.989986,41.848832 Z M 17.291205,43.94424 c -0.424886,0 -0.701084,0.274104 -0.701084,0.698994 v 9.903812 c 0,0.424887 0.276198,0.701089 0.701084,0.701089 h 9.902162 c 0.424884,0 0.700558,-0.276202 0.700558,-0.701089 v -9.903812 c 0,-0.42489 -0.275674,-0.698994 -0.700558,-0.698994 z m 22.698258,8.032143 a 2.6827755,2.6827967 0 0 1 0.0068,0 h 35.138049 a 2.6827755,2.6827967 0 0 1 2.683823,2.683842 2.6827755,2.6827967 0 0 1 -2.683823,2.681223 H 39.996275 a 2.6827755,2.6827967 0 0 1 -2.683297,-2.681223 2.6827755,2.6827967 0 0 1 2.676485,-2.683842 z M 17.291205,64.829695 h 9.902162 c 2.728652,0 4.992473,2.263839 4.992473,4.992515 v 9.903809 c 0,2.728677 -2.263821,4.990944 -4.992473,4.990944 h -9.902162 c -2.728653,0 -4.992474,-2.262267 -4.992474,-4.990944 V 69.82221 c 0,-2.728676 2.263821,-4.992515 4.992474,-4.992515 z m 22.700879,2.198111 a 2.6827755,2.6827967 0 0 1 0.0042,0 h 35.13805 a 2.6827755,2.6827967 0 0 1 2.683823,2.681223 2.6827755,2.6827967 0 0 1 -2.683823,2.683844 H 39.996275 a 2.6827755,2.6827967 0 0 1 -2.683297,-2.683844 2.6827755,2.6827967 0 0 1 2.679106,-2.681223 z m -22.700879,2.09541 c -0.424886,0 -0.701084,0.274104 -0.701084,0.698994 v 9.903809 c 0,0.424891 0.276198,0.698995 0.701084,0.698995 h 9.902162 c 0.424884,0 0.700558,-0.274104 0.700558,-0.698995 V 69.82221 c 0,-0.42489 -0.275674,-0.698994 -0.700558,-0.698994 z m 0,20.88336 h 9.902162 c 2.728652,0 4.992473,2.263839 4.992473,4.992513 v 9.903811 c 0,2.72867 -2.263821,4.99251 -4.992473,4.99251 h -9.902162 c -2.728653,0 -4.992474,-2.26384 -4.992474,-4.99251 v -9.903811 c 0,-2.728674 2.263821,-4.992513 4.992474,-4.992513 z m 0,4.293519 c -0.424886,0 -0.701084,0.274103 -0.701084,0.698994 v 9.903811 c 0,0.42488 0.276198,0.69899 0.701084,0.69899 h 9.902162 c 0.424884,0 0.700558,-0.27411 0.700558,-0.69899 v -9.903811 c 0,-0.424891 -0.275674,-0.698994 -0.700558,-0.698994 z" />
    <path
       id="rect837"
       style="fill:#eeeeee;fill-opacity:1;stroke:none;stroke-width:4.44721;stroke-linejoin:round;stroke-miterlimit:4;stroke-dasharray:none;stroke-opacity:1"
       d="m 32.116036,6.1665972 c -5.495278,0 -9.919591,4.4243558 -9.919591,9.9196768 0,0.04786 0.0029,0.09501 0.0035,0.142686 H 68.63698 c 6.71e-4,-0.04776 0.0035,-0.09481 0.0035,-0.142686 0,-5.495321 -4.424315,-9.9196768 -9.919593,-9.9196768 z" />
    <rect
       style="fill:#eeeeee;fill-opacity:0.996078;stroke:#eeeeee;stroke-width:6.61502;stroke-linecap:round;stroke-linejoin:round;stroke-miterlimit:4;stroke-dasharray:none;stroke-opacity:0.996078"
       id="rect995"
       width="52.1763"
       height="22.958714"
       x="47.922874"
       y="87.223938" />
    <path
       sodipodi:type="star"
       style="fill:#eeeeee;fill-opacity:0.996078;stroke:#eeeeee;stroke-width:9.06529;stroke-linecap:round;stroke-linejoin:round;stroke-miterlimit:4;stroke-dasharray:none;stroke-opacity:0.996078"
       id="path997"
       sodipodi:sides="3"
       sodipodi:cx="219.26888"
       sodipodi:cy="80.261986"
       sodipodi:r1="29.320442"
       sodipodi:r2="14.660221"
       sodipodi:arg1="0"
       sodipodi:arg2="1.0471976"
       inkscape:flatsided="false"
       inkscape:rounded="0"
       inkscape:randomized="0"
       inkscape:transform-center-x="-4.071492"
       inkscape:transform-center-y="2.158417e-06"
       transform="matrix(0.62705022,0,0,0.84917312,-28.353947,31.317409)"
       d="m 248.58932,80.261986 -21.99033,12.696124 -21.99034,12.69612 0,-25.392245 0,-25.392247 21.99034,12.696124 z" />
    <path
       style="fill:none;stroke:#920e0e;stroke-width:7.9375;stroke-linecap:butt;stroke-linejoin:miter;stroke-miterlimit:4;stroke-dasharray:none;stroke-opacity:0.47205"
       d="M 167.88979,57.410578 V 98.944259"
       id="path842" />
  </g>
</svg>
