<?xml version="1.0" encoding="UTF-8" standalone="no"?>
<svg
   xmlns:dc="http://purl.org/dc/elements/1.1/"
   xmlns:cc="http://creativecommons.org/ns#"
   xmlns:rdf="http://www.w3.org/1999/02/22-rdf-syntax-ns#"
   xmlns:svg="http://www.w3.org/2000/svg"
   xmlns="http://www.w3.org/2000/svg"
   xmlns:sodipodi="http://sodipodi.sourceforge.net/DTD/sodipodi-0.dtd"
   xmlns:inkscape="http://www.inkscape.org/namespaces/inkscape"
   width="512"
   height="512"
   viewBox="0 0 135.46666 135.46667"
   version="1.1"
   id="svg8"
   inkscape:version="1.0.2-2 (e86c870879, 2021-01-15)"
   sodipodi:docname="plus(task1).svg"
   inkscape:export-filename="C:\Users\Neor\Documents\icon2\png\plus(task)2.png"
   inkscape:export-xdpi="96.000008"
   inkscape:export-ydpi="96.000008">
  <defs
     id="defs2" />
  <sodipodi:namedview
     id="base"
     pagecolor="#ffffff"
     bordercolor="#666666"
     borderopacity="1.0"
     inkscape:pageopacity="0.0"
     inkscape:pageshadow="2"
     inkscape:zoom="1.4142136"
     inkscape:cx="330.66007"
     inkscape:cy="334.60814"
     inkscape:document-units="mm"
     inkscape:current-layer="layer1"
     inkscape:document-rotation="0"
     showgrid="false"
     inkscape:window-width="1768"
     inkscape:window-height="925"
     inkscape:window-x="-9"
     inkscape:window-y="29"
     inkscape:window-maximized="1"
     units="px"
     showguides="true"
     inkscape:guide-bbox="true"
     inkscape:pagecheckerboard="false" />
  <metadata
     id="metadata5">
    <rdf:RDF>
      <cc:Work
         rdf:about="">
        <dc:format>image/svg+xml</dc:format>
        <dc:type
           rdf:resource="http://purl.org/dc/dcmitype/StillImage" />
        <dc:title />
      </cc:Work>
    </rdf:RDF>
  </metadata>
  <g
     inkscape:label="Слой 1"
     inkscape:groupmode="layer"
     id="layer1">
    <path
       id="rect879"
       style="opacity:0.995;fill:#eeeeee;fill-opacity:0.996078;stroke:#eeeeee;stroke-width:5.29167;stroke-linecap:round;stroke-linejoin:round;stroke-miterlimit:4;stroke-dasharray:none;stroke-opacity:0.996078"
       d="m 65.523401,3.11764 c -5.631984,0 -10.166305,4.53432 -10.166305,10.16631 v 41.937 H 13.420122 c -5.6319854,0 -10.1663042,4.53432 -10.1663042,10.16631 v 4.69222 c 0,5.63199 4.5343188,10.16632 10.1663042,10.16632 h 41.936974 v 41.93698 c 0,1.15486 0.193506,2.26248 0.545187,3.2954 v -47.0607 c 0,-9.35836 7.45073,-16.892 16.70544,-16.892 h 49.601627 c 3.87936,0 7.43863,1.32725 10.2681,3.55431 -0.16195,-5.48821 -4.62974,-9.85884 -10.15855,-9.85884 H 80.381927 v -41.937 c 0,-5.63199 -4.534321,-10.16631 -10.166305,-10.16631 z" />
    <path
       id="rect838"
       style="fill:#eeeeee;fill-opacity:0.996078;stroke:none;stroke-width:20.0013;stroke-linecap:round;stroke-linejoin:round;stroke-opacity:0.996078"
       d="M 287.625 267.48438 C 266.59114 267.48438 249.6582 284.41926 249.6582 305.45312 L 249.6582 512 L 495.86328 512 L 495.86328 305.45312 C 495.86328 284.41926 478.93035 267.48438 457.89648 267.48438 L 287.625 267.48438 z M 292.06836 297.64453 A 12.499994 12.499994 0 0 1 292.08594 297.64453 L 453.43945 297.64453 A 12.499994 12.499994 0 0 1 465.93555 310.14258 A 12.499994 12.499994 0 0 1 453.43945 322.64062 L 292.08594 322.64062 A 12.499994 12.499994 0 0 1 279.58008 310.14258 A 12.499994 12.499994 0 0 1 292.06836 297.64453 z M 292.06836 349.64258 A 12.499994 12.499994 0 0 1 292.08594 349.64258 L 453.43945 349.64258 A 12.499994 12.499994 0 0 1 465.93555 362.14062 A 12.499994 12.499994 0 0 1 453.43945 374.64648 L 292.08594 374.64648 A 12.499994 12.499994 0 0 1 279.58008 362.14062 A 12.499994 12.499994 0 0 1 292.06836 349.64258 z M 292.06055 401.64062 A 12.499994 12.499994 0 0 1 292.08594 401.64062 L 453.43945 401.64062 A 12.499994 12.499994 0 0 1 465.93555 414.14648 A 12.499994 12.499994 0 0 1 453.43945 426.64453 L 292.08594 426.64453 A 12.499994 12.499994 0 0 1 279.58008 414.14648 A 12.499994 12.499994 0 0 1 292.06055 401.64062 z M 292.06836 453.64648 A 12.499994 12.499994 0 0 1 292.08594 453.64648 L 453.43945 453.64648 A 12.499994 12.499994 0 0 1 465.93555 466.14453 A 12.499994 12.499994 0 0 1 453.43945 478.64258 L 292.08594 478.64258 A 12.499994 12.499994 0 0 1 279.58008 466.14453 A 12.499994 12.499994 0 0 1 292.06836 453.64648 z "
       transform="scale(0.26458333)" />
  </g>
</svg>
