<?xml version="1.0" encoding="UTF-8" standalone="no"?>
<svg
   xmlns:dc="http://purl.org/dc/elements/1.1/"
   xmlns:cc="http://creativecommons.org/ns#"
   xmlns:rdf="http://www.w3.org/1999/02/22-rdf-syntax-ns#"
   xmlns:svg="http://www.w3.org/2000/svg"
   xmlns="http://www.w3.org/2000/svg"
   xmlns:sodipodi="http://sodipodi.sourceforge.net/DTD/sodipodi-0.dtd"
   xmlns:inkscape="http://www.inkscape.org/namespaces/inkscape"
   width="512"
   height="512"
   viewBox="0 0 135.46666 135.46667"
   version="1.1"
   id="svg8"
   inkscape:version="1.0.2-2 (e86c870879, 2021-01-15)"
   sodipodi:docname="give_task.svg"
   inkscape:export-filename="C:\Users\Neor\Documents\icon2\png\give_task.png"
   inkscape:export-xdpi="96.000008"
   inkscape:export-ydpi="96.000008">
  <defs
     id="defs2" />
  <sodipodi:namedview
     id="base"
     pagecolor="#ffffff"
     bordercolor="#666666"
     borderopacity="1.0"
     inkscape:pageopacity="0.0"
     inkscape:pageshadow="2"
     inkscape:zoom="0.3535534"
     inkscape:cx="39.817112"
     inkscape:cy="478.60507"
     inkscape:document-units="mm"
     inkscape:current-layer="layer1"
     inkscape:document-rotation="0"
     showgrid="false"
     inkscape:window-width="1768"
     inkscape:window-height="925"
     inkscape:window-x="-9"
     inkscape:window-y="29"
     inkscape:window-maximized="1"
     units="px"
     showguides="true"
     inkscape:guide-bbox="true"
     inkscape:pagecheckerboard="false" />
  <metadata
     id="metadata5">
    <rdf:RDF>
      <cc:Work
         rdf:about="">
        <dc:format>image/svg+xml</dc:format>
        <dc:type
           rdf:resource="http://purl.org/dc/dcmitype/StillImage" />
        <dc:title />
      </cc:Work>
    </rdf:RDF>
  </metadata>
  <g
     inkscape:label="Слой 1"
     inkscape:groupmode="layer"
     id="layer1">
    <path
       style="fill:none;stroke:#ffffff;stroke-width:9.26039;stroke-linecap:round;stroke-linejoin:round;stroke-miterlimit:4;stroke-dasharray:none;stroke-opacity:1"
       d="M 12.64324,25.267709 H 74.933843"
       id="path924" />
    <g
       id="g1279"
       transform="matrix(1.0139618,0,0,1.0139698,-0.92650607,-1.1874993)"
       style="stroke-width:0.986227">
      <path
         id="path1065"
         style="color:#000000;font-style:normal;font-variant:normal;font-weight:normal;font-stretch:normal;font-size:medium;line-height:normal;font-family:sans-serif;font-variant-ligatures:normal;font-variant-position:normal;font-variant-caps:normal;font-variant-numeric:normal;font-variant-alternates:normal;font-variant-east-asian:normal;font-feature-settings:normal;font-variation-settings:normal;text-indent:0;text-align:start;text-decoration:none;text-decoration-line:none;text-decoration-style:solid;text-decoration-color:#000000;letter-spacing:normal;word-spacing:normal;text-transform:none;writing-mode:lr-tb;direction:ltr;text-orientation:mixed;dominant-baseline:auto;baseline-shift:baseline;text-anchor:start;white-space:normal;shape-padding:0;shape-margin:0;inline-size:0;clip-rule:nonzero;display:inline;overflow:visible;visibility:visible;isolation:auto;mix-blend-mode:normal;color-interpolation:sRGB;color-interpolation-filters:linearRGB;solid-color:#000000;solid-opacity:1;vector-effect:none;fill:#eeeeee;fill-opacity:0.996078;fill-rule:nonzero;stroke:none;stroke-width:24.6572;stroke-linecap:round;stroke-linejoin:round;stroke-miterlimit:4;stroke-dasharray:none;stroke-dashoffset:0;stroke-opacity:1;color-rendering:auto;image-rendering:auto;shape-rendering:auto;text-rendering:auto;enable-background:accumulate;stop-color:#000000"
         d="M 20.75,80.949219 A 12.502056,12.502056 0 0 0 8.2539062,93.447266 V 472.83203 A 12.502056,12.502056 0 0 0 20.75,485.33789 h 304.00195 a 12.502056,12.502056 0 0 0 12.4961,-12.50586 v -17.4375 H 162.39844 c -12.33972,0 -22.27344,-9.93372 -22.27344,-22.27344 V 310.38477 c 0,-12.33972 9.93372,-22.27344 22.27344,-22.27344 H 337.24805 V 93.447266 a 12.502056,12.502056 0 0 0 -12.4961,-12.498047 z m 47.15625,71.279301 h 36.91016 c 10.17101,0 18.60937,8.4325 18.60937,18.60351 v 36.91602 c 0,10.17101 -8.43836,18.60937 -18.60937,18.60937 H 67.90625 c -10.171015,0 -18.609375,-8.43836 -18.609375,-18.60937 v -36.91602 c 0,-10.17101 8.43836,-18.60351 18.609375,-18.60351 z m 84.60937,8.1875 a 10.000006,10.000006 0 0 1 0.0234,0 h 130.97656 a 10.000006,10.000006 0 0 1 10.00391,10.00195 10.000006,10.000006 0 0 1 -10.00391,10.00195 H 152.53906 a 10.000006,10.000006 0 0 1 -10.00195,-10.00195 10.000006,10.000006 0 0 1 9.97851,-10.00195 z m -84.60937,7.81054 c -1.583758,0 -2.613281,1.02171 -2.613281,2.60547 v 36.91602 c 0,1.58375 1.029523,2.61328 2.613281,2.61328 h 36.91016 c 1.58375,0 2.61132,-1.02953 2.61132,-2.61328 v -36.91602 c 0,-1.58376 -1.02757,-2.60547 -2.61132,-2.60547 z m 84.60742,29.93946 a 10.000006,10.000006 0 0 1 0.0254,0 h 130.97656 a 10.000006,10.000006 0 0 1 10.00391,10.0039 10.000006,10.000006 0 0 1 -10.00391,9.99414 H 152.53906 a 10.000006,10.000006 0 0 1 -10.00195,-9.99414 10.000006,10.000006 0 0 1 9.97656,-10.0039 z m -84.60742,47.91015 h 36.91016 c 10.17101,0 18.60937,8.43836 18.60937,18.60938 v 36.91601 c 0,10.17102 -8.43836,18.60352 -18.60937,18.60352 H 67.90625 c -10.171015,0 -18.609375,-8.4325 -18.609375,-18.60352 v -36.91601 c 0,-10.17102 8.43836,-18.60938 18.609375,-18.60938 z m 84.61719,8.19336 a 10.000006,10.000006 0 0 1 0.0156,0 H 283.5156 a 10.000006,10.000006 0 0 1 10.00391,9.99414 10.000006,10.000006 0 0 1 -10.00391,10.00391 H 152.53906 a 10.000006,10.000006 0 0 1 -10.00195,-10.00391 10.000006,10.000006 0 0 1 9.98633,-9.99414 z m -84.61719,7.81055 c -1.583758,0 -2.613281,1.02171 -2.613281,2.60547 v 36.91601 c 0,1.58376 1.029523,2.60547 2.613281,2.60547 h 36.91016 c 1.58375,0 2.61132,-1.02171 2.61132,-2.60547 v -36.91601 c 0,-1.58376 -1.02757,-2.60547 -2.61132,-2.60547 z m 0,77.8418 h 36.91016 c 10.17101,0 18.60937,8.43836 18.60937,18.60937 v 36.91602 c 0,10.17101 -8.43836,18.60937 -18.60937,18.60937 H 67.90625 c -10.171015,0 -18.609375,-8.43836 -18.609375,-18.60937 v -36.91602 c 0,-10.17101 8.43836,-18.60937 18.609375,-18.60937 z m 0,16.0039 c -1.583758,0 -2.613281,1.02171 -2.613281,2.60547 v 36.91602 c 0,1.58373 1.029523,2.60546 2.613281,2.60546 h 36.91016 c 1.58375,0 2.61132,-1.02173 2.61132,-2.60546 v -36.91602 c 0,-1.58376 -1.02757,-2.60547 -2.61132,-2.60547 z"
         transform="scale(0.26458333)" />
      <path
         id="rect837"
         style="fill:#eeeeee;fill-opacity:1;stroke:none;stroke-width:4.38596;stroke-linejoin:round;stroke-miterlimit:4;stroke-dasharray:none;stroke-opacity:1"
         d="m 32.587561,7.2527767 c -5.41961,0 -9.783003,4.3634003 -9.783003,9.7830103 0,0.0472 0.0029,0.0937 0.0035,0.14072 h 45.797617 c 6.62e-4,-0.0471 0.0035,-0.0935 0.0035,-0.14072 0,-5.41961 -4.363394,-9.7830103 -9.783004,-9.7830103 z" />
      <g
         id="g1173"
         style="stroke-width:0.986227">
        <rect
           style="fill:#eeeeee;fill-opacity:0.996078;stroke:#eeeeee;stroke-width:6.5239;stroke-linecap:round;stroke-linejoin:round;stroke-miterlimit:4;stroke-dasharray:none;stroke-opacity:0.996078"
           id="rect995"
           width="56.227089"
           height="27.260702"
           x="45.689137"
           y="84.72924" />
        <path
           sodipodi:type="star"
           style="fill:#eeeeee;fill-opacity:0.996078;stroke:#eeeeee;stroke-width:7.56315;stroke-linecap:round;stroke-linejoin:round;stroke-miterlimit:4;stroke-dasharray:none;stroke-opacity:0.996078"
           id="path997"
           sodipodi:sides="3"
           sodipodi:cx="219.26888"
           sodipodi:cy="80.261986"
           sodipodi:r1="29.320442"
           sodipodi:r2="14.660221"
           sodipodi:arg1="0"
           sodipodi:arg2="1.0471976"
           inkscape:flatsided="false"
           inkscape:rounded="0"
           inkscape:randomized="0"
           inkscape:transform-center-x="-4.071492"
           inkscape:transform-center-y="2.158417e-06"
           transform="matrix(0.7379443,0,0,1.0082906,-52.99038,18.34698)"
           d="m 248.58932,80.261986 -21.99033,12.696124 -21.99034,12.69612 0,-25.392245 0,-25.392247 21.99034,12.696124 z" />
      </g>
    </g>
  </g>
</svg>
